<?xml version="1.0" standalone="no"?>
<!DOCTYPE svg PUBLIC "-//W3C//DTD SVG 20010904//EN"
 "http://www.w3.org/TR/2001/REC-SVG-20010904/DTD/svg10.dtd">
<svg version="1.0" xmlns="http://www.w3.org/2000/svg"
 width="225.000000pt" height="225.000000pt" viewBox="0 0 225.000000 225.000000"
 preserveAspectRatio="xMidYMid meet">
<metadata>
Created by potrace 1.16, written by Peter Selinger 2001-2019
</metadata>
<g transform="translate(0.000000,225.000000) scale(0.100000,-0.100000)"
fill="#000000" stroke="none">
<path d="M71 1531 c-18 -33 -13 -76 12 -98 48 -45 126 -58 337 -56 212 2 229
-7 63 -32 -154 -23 -326 -19 -395 10 -24 9 -24 -24 -2 -71 42 -88 212 -107
518 -58 l31 5 -35 -19 c-55 -31 -184 -55 -296 -56 -65 -1 -100 -5 -96 -11 64
-113 164 -133 347 -70 55 18 101 32 103 30 6 -6 -76 -62 -125 -86 -25 -12 -74
-32 -110 -44 l-65 -22 53 -23 c101 -45 194 -28 284 51 21 19 41 29 50 25 33
-12 -19 -76 -132 -164 l-53 -40 32 -11 c127 -45 208 -13 260 101 12 26 25 45
30 41 14 -8 0 -72 -23 -111 -10 -18 -19 -35 -19 -38 0 -10 73 -3 105 10 58 24
93 101 75 165 -16 57 -25 65 -81 71 -43 4 -53 9 -55 25 -1 11 -5 43 -9 70 -6
43 -4 53 14 69 25 23 26 38 4 101 l-16 48 28 23 c16 12 46 30 66 40 38 16 38
17 24 45 -8 15 -15 36 -15 46 -1 45 -10 46 -141 24 -386 -66 -641 -63 -732 9
-26 20 -26 20 -36 1z"/>
<path d="M2170 1530 c-91 -71 -325 -76 -703 -14 -81 13 -152 24 -157 24 -6 0
-10 -12 -10 -27 0 -16 -7 -41 -16 -58 -8 -16 -11 -31 -6 -33 26 -8 103 -64
109 -78 3 -8 -2 -38 -11 -65 -17 -53 -11 -79 20 -97 14 -8 15 -17 3 -80 l-13
-72 -39 0 c-51 0 -73 -13 -86 -51 -16 -46 -14 -77 9 -125 24 -49 67 -74 128
-74 l39 0 -23 47 c-23 45 -32 103 -16 103 5 0 19 -22 31 -50 27 -59 68 -97
117 -106 36 -7 142 10 156 24 4 4 -24 32 -62 62 -68 53 -120 113 -120 138 0
21 36 13 61 -14 13 -14 44 -38 69 -52 59 -35 143 -36 215 -3 l50 23 -65 22
c-100 34 -244 116 -229 130 3 3 41 -8 84 -25 81 -32 198 -48 249 -35 27 7 101
67 116 95 7 14 -5 16 -99 17 -58 1 -138 8 -177 17 -71 15 -150 44 -143 51 2 3
47 -2 99 -10 113 -17 289 -18 345 -3 56 16 105 68 105 112 l0 35 -47 -15 c-85
-26 -443 -4 -478 29 -6 6 42 7 130 3 298 -14 454 41 404 144 l-14 30 -25 -19z"/>
<path d="M1046 1424 c-60 -30 -136 -84 -136 -96 0 -5 7 -20 16 -34 21 -31 13
-88 -18 -121 -20 -21 -21 -27 -10 -56 7 -19 12 -41 12 -50 0 -13 10 -17 45
-17 59 0 65 -10 108 -196 20 -83 44 -172 55 -199 l19 -49 22 59 c12 32 37 123
56 202 19 79 39 153 45 163 8 16 21 20 59 20 l49 0 6 54 c6 47 4 58 -13 75
-25 25 -28 91 -6 125 15 23 14 25 -22 55 -59 49 -150 91 -197 91 -24 0 -62
-11 -90 -26z"/>
</g>
</svg>
