<?xml version="1.0" standalone="no"?>
<!DOCTYPE svg PUBLIC "-//W3C//DTD SVG 20010904//EN"
 "http://www.w3.org/TR/2001/REC-SVG-20010904/DTD/svg10.dtd">
<svg version="1.0" xmlns="http://www.w3.org/2000/svg"
 width="880.000000pt" height="1129.000000pt" viewBox="0 0 880.000000 1129.000000"
 preserveAspectRatio="xMidYMid meet">
<metadata>
Created by potrace 1.16, written by Peter Selinger 2001-2019
</metadata>
<g transform="translate(0.000000,1129.000000) scale(0.100000,-0.100000)"
fill="#000000" stroke="none">
<path d="M3343 10850 c-91 -24 -202 -79 -289 -143 -159 -118 -443 -428 -679
-742 -133 -178 -163 -212 -200 -235 -43 -27 -92 -26 -123 3 l-25 22 7 -35 c4
-19 9 -136 13 -260 4 -181 2 -252 -12 -360 -40 -314 -128 -545 -279 -732 -23
-29 -64 -93 -91 -143 -73 -134 -213 -338 -305 -443 -82 -94 -193 -190 -277
-239 -60 -35 -166 -73 -203 -73 -37 0 -37 -6 3 -53 31 -36 33 -37 64 -25 61
23 119 -21 132 -98 6 -35 10 -39 73 -65 390 -160 767 -821 927 -1624 77 -389
99 -975 42 -1126 -19 -51 -80 -134 -120 -165 -13 -10 0 -41 81 -200 53 -104
128 -265 168 -359 95 -225 207 -452 269 -547 43 -66 71 -94 193 -191 162 -128
328 -254 373 -283 17 -10 -23 33 -88 96 -503 485 -687 989 -566 1548 34 155
96 320 213 563 l37 77 137 -35 c363 -90 543 -182 737 -377 313 -314 497 -807
571 -1526 9 -91 18 -298 21 -502 l6 -348 -32 0 c-44 0 -48 -21 -12 -71 99
-135 154 -596 169 -1414 l7 -340 28 -3 27 -3 0 2571 0 2571 -32 -3 -33 -3 -12
-90 c-34 -238 -114 -398 -227 -458 -58 -30 -146 -29 -206 2 -65 34 -168 142
-240 251 -101 154 -258 498 -330 723 -9 29 -17 37 -36 37 l-24 0 0 -186 0
-185 -57 32 c-233 130 -457 359 -522 534 -42 112 -37 203 16 266 l27 32 -43
84 c-73 141 -151 236 -376 458 -236 232 -263 270 -284 405 -28 172 5 440 75
613 33 82 108 191 157 227 41 31 44 32 127 27 47 -3 92 -8 101 -11 14 -6 18
10 30 121 8 70 14 202 14 293 -1 155 -3 173 -34 290 -31 115 -34 137 -35 280
-1 115 4 177 17 240 72 339 279 716 514 941 172 164 330 242 515 256 l86 6 58
58 c32 32 55 61 52 65 -28 28 -195 30 -295 4z"/>
<path d="M5225 10863 c-75 -15 -74 -8 -6 -77 l63 -63 81 -6 c330 -23 649 -304
877 -772 78 -159 120 -280 151 -428 17 -86 20 -127 16 -257 -3 -132 -9 -174
-35 -280 -29 -114 -32 -138 -32 -280 1 -139 20 -394 31 -405 3 -2 22 0 44 5
60 14 142 12 174 -4 15 -8 45 -34 67 -58 120 -130 194 -377 194 -649 0 -257
-28 -310 -293 -555 -191 -176 -302 -315 -385 -481 -29 -56 -30 -62 -15 -75 52
-43 68 -167 33 -265 -64 -184 -294 -424 -522 -547 l-68 -37 0 186 c0 185 0
186 -21 183 -18 -2 -30 -26 -69 -133 -197 -545 -414 -863 -612 -900 -60 -11
-142 18 -195 71 -83 83 -130 215 -168 467 -6 36 -8 38 -38 35 l-32 -3 0 -2565
0 -2565 30 0 30 0 2 260 c8 816 71 1378 168 1494 14 16 25 38 25 50 0 17 -6
21 -35 21 l-35 0 0 198 c1 1291 300 2088 900 2401 130 68 206 95 403 145 l168
43 43 -86 c112 -222 178 -401 217 -586 31 -147 34 -424 5 -555 -76 -347 -244
-631 -560 -944 -150 -149 -136 -141 171 97 106 82 214 172 240 201 27 29 78
108 115 177 71 134 77 146 205 439 46 107 124 272 172 366 l88 170 -48 52
c-105 114 -125 210 -116 552 14 516 100 947 278 1397 188 476 479 847 741 940
42 16 47 20 52 56 5 26 18 51 40 73 35 35 57 41 100 24 22 -8 29 -4 55 26 38
43 39 54 4 54 -16 0 -58 11 -94 24 -223 78 -493 367 -695 741 -26 50 -69 116
-96 147 -134 163 -224 394 -264 678 -18 127 -23 403 -11 572 l8 106 -36 -18
c-74 -38 -116 -5 -290 225 -263 348 -516 626 -683 753 -102 76 -226 138 -318
157 -65 14 -174 18 -219 8z"/>
<path d="M4046 8984 c-124 -30 -292 -128 -419 -243 -169 -156 -271 -359 -284
-567 -7 -111 11 -199 72 -365 62 -166 68 -193 55 -235 -20 -59 -67 -70 -137
-29 -24 13 -43 20 -43 16 0 -19 110 -110 175 -145 133 -73 142 -81 179 -158
19 -40 55 -131 81 -203 26 -73 57 -141 71 -156 28 -29 31 -74 8 -107 -18 -26
-41 -28 -91 -7 -30 13 -17 -4 85 -109 66 -69 133 -142 148 -163 16 -21 43 -55
61 -76 40 -45 41 -70 7 -104 -22 -22 -32 -25 -75 -21 -27 3 -49 3 -49 1 0 -2
51 -28 113 -58 113 -54 160 -92 223 -180 14 -20 25 -27 37 -22 14 5 17 21 17
102 0 52 -4 95 -9 95 -17 0 -21 33 -6 56 20 31 20 94 0 94 -25 0 -55 42 -55
76 0 46 9 63 41 80 26 13 29 19 29 67 l0 52 -67 45 c-39 27 -80 65 -100 94
-43 63 -46 138 -8 210 29 54 31 74 10 102 -21 28 -18 50 11 73 31 25 62 26
109 7 l35 -15 -6 69 c-6 62 -4 73 19 113 l26 44 -67 7 c-221 22 -417 126 -527
280 -53 75 -107 188 -126 266 -23 90 -18 289 9 384 49 172 161 340 296 442 94
71 165 108 288 148 l103 34 -40 11 c-53 14 -126 13 -199 -5z"/>
<path d="M4550 8988 l-35 -11 65 -19 c316 -92 529 -293 622 -588 20 -65 23
-96 23 -225 0 -131 -3 -159 -23 -220 -42 -124 -90 -204 -177 -290 -123 -124
-274 -193 -458 -210 l-76 -7 26 -39 c23 -35 25 -46 21 -113 l-5 -74 33 14 c58
24 113 11 132 -31 9 -19 7 -29 -9 -48 -25 -32 -24 -34 11 -109 16 -34 30 -74
30 -87 0 -77 -51 -152 -150 -220 -53 -36 -55 -39 -58 -88 -3 -48 -1 -52 25
-65 39 -19 60 -76 41 -115 -7 -15 -23 -32 -36 -38 -25 -11 -29 -49 -10 -101
10 -28 9 -36 -5 -52 -18 -19 -23 -108 -11 -171 9 -45 37 -40 68 13 38 65 108
121 196 157 42 18 87 39 99 48 20 16 19 16 -24 13 -62 -5 -95 17 -95 62 0 39
51 104 238 304 95 101 109 120 80 106 -45 -21 -81 -13 -96 21 -18 39 -15 63
13 91 15 15 43 75 70 147 96 265 109 285 212 342 97 54 188 120 213 155 l22
30 -48 -25 c-61 -33 -97 -32 -123 1 -32 41 -26 90 29 240 66 177 80 239 80
355 0 216 -87 407 -267 580 -178 171 -359 266 -528 274 -44 3 -96 0 -115 -7z"/>
</g>
</svg>
