<?xml version="1.0" standalone="no"?>
<!DOCTYPE svg PUBLIC "-//W3C//DTD SVG 20010904//EN"
 "http://www.w3.org/TR/2001/REC-SVG-20010904/DTD/svg10.dtd">
<svg version="1.0" xmlns="http://www.w3.org/2000/svg"
 width="840.000000pt" height="1498.000000pt" viewBox="0 0 840.000000 1498.000000"
 preserveAspectRatio="xMidYMid meet">
<metadata>
Created by potrace 1.16, written by Peter Selinger 2001-2019
</metadata>
<g transform="translate(0.000000,1498.000000) scale(0.100000,-0.100000)"
fill="#000000" stroke="none">
<path d="M1077 14550 c-199 -18 -384 -62 -487 -116 -140 -73 -238 -208 -318
-436 -42 -118 -64 -242 -66 -369 -1 -97 1 -108 24 -141 14 -19 70 -101 124
-182 55 -80 105 -146 111 -146 7 0 39 -20 71 -45 67 -52 89 -60 126 -46 22 8
33 5 71 -20 71 -47 130 -138 171 -266 17 -50 17 -57 -8 -217 -14 -90 -26 -169
-26 -175 0 -6 -28 -29 -62 -52 -109 -73 -196 -149 -226 -197 -113 -180 -163
-491 -131 -818 13 -141 37 -242 95 -400 119 -331 205 -497 547 -1056 l284
-466 6 -135 c9 -176 -5 -252 -59 -337 -13 -19 -116 -291 -229 -605 -114 -313
-238 -655 -275 -759 -38 -105 -68 -191 -67 -192 1 -1 137 -39 302 -84 165 -44
314 -85 331 -91 l31 -10 8 -118 c6 -112 4 -129 -30 -300 l-36 -181 39 -87 39
-88 6 -335 6 -335 -45 -77 c-44 -75 -45 -77 -42 -157 l3 -80 42 19 43 19 0
-34 c0 -21 -14 -56 -35 -93 l-36 -59 40 -169 41 -169 6 -273 7 -272 51 -7 c47
-6 49 -8 21 -14 -16 -4 -57 -7 -90 -8 -33 -1 -77 -5 -98 -9 -38 -7 -34 -9 92
-50 120 -40 131 -45 126 -65 -3 -12 -34 -251 -69 -532 -74 -585 -176 -1382
-212 -1660 -33 -261 -35 -243 26 -235 39 5 50 3 50 -8 0 -7 -12 -113 -26 -233
-18 -155 -35 -257 -59 -343 -32 -118 -33 -126 -19 -171 9 -33 12 -69 8 -116
l-7 -69 72 0 c56 0 82 -5 120 -24 47 -24 50 -24 102 -10 79 23 299 17 819 -21
176 -13 454 -62 675 -119 81 -22 143 -20 190 4 22 11 47 20 56 20 9 0 20 7 23
16 7 20 -9 86 -34 135 -49 96 -336 311 -703 527 -53 31 -146 104 -237 184
l-150 133 0 101 0 101 90 11 c89 11 90 11 227 -29 76 -21 144 -41 151 -44 6
-2 12 -2 12 0 0 2 -81 66 -180 141 -99 75 -180 141 -180 147 0 5 75 183 166
395 189 438 254 617 254 704 0 82 50 211 132 341 l68 108 0 77 c0 116 21 166
92 216 l57 41 1 117 c0 101 4 127 25 185 l26 68 -16 190 c-16 189 -17 190 -51
243 l-35 53 45 82 c35 67 56 129 111 337 37 140 70 258 73 261 4 4 207 -172
452 -390 l445 -396 71 -210 c57 -169 72 -226 78 -295 5 -72 22 -134 117 -415
100 -295 115 -333 145 -360 29 -26 44 -62 115 -265 44 -130 80 -251 80 -270
-1 -40 48 -402 55 -410 3 -3 28 -12 56 -20 l50 -15 35 -100 c36 -104 36 -106
6 -198 -4 -14 1 -17 29 -17 l35 0 66 -192 c37 -105 69 -193 72 -196 3 -3 51
13 108 36 56 23 105 42 109 42 9 0 179 -295 204 -355 12 -27 59 -108 105 -180
47 -71 128 -203 180 -292 51 -90 98 -163 102 -163 5 0 29 16 54 35 25 19 55
35 66 35 44 0 108 43 177 120 49 54 144 134 298 252 478 364 777 603 880 703
86 84 93 113 37 146 -19 11 -37 29 -40 40 -14 42 -40 48 -202 44 -174 -5 -257
-20 -430 -76 -142 -46 -303 -83 -313 -72 -36 42 -130 162 -130 166 0 2 59 28
130 57 71 29 130 59 130 65 0 6 -36 95 -81 196 -45 101 -134 306 -199 454 -64
149 -218 500 -340 780 -122 281 -278 638 -346 794 -82 189 -142 312 -178 365
-66 99 -106 173 -106 197 0 10 -13 33 -28 51 -16 18 -64 101 -107 183 -63 118
-80 162 -85 205 l-5 55 -88 49 -88 49 -55 108 c-32 65 -102 174 -174 273
l-120 164 0 75 0 75 -69 104 c-59 87 -100 132 -270 292 -111 104 -201 191
-201 193 0 3 54 62 120 131 66 69 120 129 120 132 0 4 -50 65 -111 136 -146
170 -175 208 -311 409 -403 596 -536 923 -555 1361 -5 117 14 1094 21 1102 2
1 47 -7 102 -18 259 -54 1372 -279 1395 -282 22 -3 41 15 134 126 100 118 110
127 116 105 4 -13 19 -115 35 -226 15 -112 30 -203 34 -203 3 0 66 65 140 145
74 80 138 145 143 145 5 0 7 -37 6 -84 l-4 -84 -180 -188 c-99 -104 -187 -197
-195 -207 -14 -18 -13 -18 20 -4 19 8 162 74 318 147 156 73 285 131 287 129
1 -2 -84 -114 -191 -248 -107 -133 -194 -246 -194 -249 0 -4 116 109 258 251
l257 257 109 275 110 275 223 0 c254 0 280 -6 324 -69 18 -26 37 -40 59 -45
57 -11 156 -6 194 9 l37 16 88 -82 c81 -74 89 -85 94 -125 5 -52 21 -74 53
-74 31 0 44 27 44 92 0 44 -6 62 -36 108 -20 30 -59 78 -85 106 l-49 50 25 24
c15 14 25 34 25 52 0 25 2 27 19 18 11 -5 57 -45 103 -89 70 -66 90 -93 128
-170 43 -89 57 -104 78 -78 43 53 0 150 -116 262 -45 42 -99 91 -122 107 -23
17 -40 38 -40 49 0 19 2 19 42 -3 46 -25 218 -184 218 -202 0 -18 57 -133 70
-141 18 -11 58 3 70 25 17 32 -16 91 -118 215 -70 84 -108 119 -162 153 -38
24 -70 48 -70 53 0 14 3 12 107 -50 87 -53 104 -68 149 -133 28 -40 65 -101
83 -135 39 -79 58 -90 94 -57 15 14 27 29 27 35 0 20 -33 75 -96 160 -56 75
-80 97 -191 174 -95 66 -155 100 -237 132 -126 50 -141 51 -391 29 -88 -8
-277 -20 -420 -26 l-260 -12 -1128 207 -1129 207 -89 50 c-88 49 -111 66 -66
49 16 -6 115 8 327 46 l305 55 405 -26 405 -27 206 -51 207 -52 111 47 c109
45 112 46 148 31 93 -39 536 -204 540 -201 2 2 -67 69 -152 148 -85 79 -151
145 -146 147 6 2 179 -49 387 -113 207 -64 378 -114 380 -112 2 2 -75 56 -171
121 -96 65 -175 120 -175 122 0 5 -6 9 300 -170 118 -69 216 -121 218 -116 2
4 -31 133 -73 285 l-77 276 20 47 c63 146 123 262 135 262 8 0 58 -13 113 -30
121 -36 146 -37 318 -5 l135 25 110 -61 c101 -56 112 -65 151 -125 43 -67 76
-92 106 -80 23 9 14 73 -19 121 -20 30 -153 157 -214 206 -10 7 -10 16 -1 37
7 15 14 30 17 34 3 4 71 -26 151 -65 l145 -72 53 -77 c29 -43 59 -78 67 -78
33 0 33 84 0 151 -22 43 -40 59 -128 117 -56 37 -144 90 -195 117 -50 28 -91
54 -89 58 1 5 14 16 29 25 25 15 32 14 126 -12 110 -31 100 -21 146 -137 17
-44 73 -89 110 -89 33 0 41 19 28 70 -9 36 -8 38 9 27 29 -18 51 12 57 76 6
72 -9 111 -73 199 l-54 73 -173 52 -173 52 -90 -20 c-149 -33 -231 -58 -425
-131 -151 -57 -330 -118 -347 -118 -2 0 -8 11 -13 25 -7 20 -15 24 -32 20 -87
-19 -523 -50 -933 -65 -512 -18 -581 -21 -805 -36 -257 -17 -444 -37 -610 -65
-191 -34 -226 -38 -384 -44 l-151 -7 -495 95 c-272 52 -683 130 -913 173
l-419 79 -63 89 c-45 64 -61 93 -54 102 16 19 98 51 192 75 49 12 102 31 120
43 45 31 77 82 77 125 0 56 -42 136 -87 165 l-38 25 -69 -25 c-83 -30 -115
-28 -135 7 -32 58 37 171 124 205 l44 16 -15 29 c-8 16 -17 49 -21 75 -6 43
-4 47 31 76 98 81 83 144 -64 270 l-63 55 -18 86 c-21 103 -72 214 -134 291
-43 52 -44 56 -23 56 30 0 49 13 40 26 -15 22 -143 105 -213 138 -131 62 -404
95 -622 76z m6836 -2116 c91 -30 112 -41 127 -67 18 -28 37 -123 28 -133 -3
-2 -38 34 -79 81 -79 91 -80 92 -148 100 -42 5 -81 28 -81 47 0 16 46 8 153
-28z"/>
</g>
</svg>
